<svg xmlns="http://www.w3.org/2000/svg" version="1.1" xmlns:xlink="http://www.w3.org/1999/xlink" xmlns:svgjs="http://svgjs.dev/svgjs" width="1440" height="560" preserveAspectRatio="none" viewBox="0 0 1440 560"><g mask="url(&quot;#SvgjsMask1034&quot;)" fill="none"><rect width="1440" height="560" x="0" y="0" fill="#0e2a47"></rect><path d="M0,480.437C102.281,466.581,211.593,519.324,303.254,471.872C397.3,423.186,456.174,324.444,493.073,225.179C528.417,130.097,514.587,28.342,505.685,-72.706C496.272,-179.551,500.641,-292.732,439.67,-380.976C375.895,-473.279,269.872,-522.752,165.794,-564.641C52.77,-610.131,-66.53,-657.673,-185.779,-632.706C-308.814,-606.947,-413.126,-524.229,-492.559,-426.804C-570.546,-331.151,-611.357,-212.581,-628.017,-90.295C-644.587,31.332,-633.736,154.58,-587.239,268.183C-539.47,384.896,-479.693,519.003,-361.092,561.87C-242.653,604.679,-124.798,497.343,0,480.437" fill="#0b2137"></path><path d="M1440 1119.807C1570.417 1124.318 1703.522 1209.107 1821.993 1154.393 1942.27 1098.844 2010.883 965.075 2049.4629999999997 838.332 2085.483 719.999 2039.646 598.567 2028.6860000000001 475.36 2016.975 343.716 2069.535 189.38299999999998 1982.859 89.61000000000001 1896.1770000000001-10.169999999999959 1738.221 8.313999999999965 1607.284-9.717999999999961 1494.677-25.226 1378.862-49.99199999999996 1273.184-8.123000000000047 1171.502 32.16300000000001 1114.872 133.596 1041.297 214.522 965.683 297.691 873.864 367.395 835.667 473.11 792.438 592.754 769.439 726.817 813.012 846.336 857.855 969.3389999999999 954.614 1076.203 1074.618 1128.545 1188.595 1178.258 1315.727 1115.509 1440 1119.807" fill="#113357"></path></g><defs><mask id="SvgjsMask1034"><rect width="1440" height="560" fill="#ffffff"></rect></mask></defs></svg>